%
M48
M72
T01C0.01181
T02C0.01378
T03C0.02756
T04C0.03200
T05C0.03937
T06C0.04000
T07C0.05906
%
T01
X58087Y353324
T02
X91551Y28521
X91551Y40332
X91551Y52143
X91551Y63954
X91551Y75765
X91551Y87576
X91551Y99387
X91551Y111198
X91551Y123009
X91551Y134821
X91551Y146632
X91551Y158443
X91551Y170254
X91551Y182065
X91551Y193876
X91551Y205687
X91551Y217498
X91551Y229309
X101394Y235214
X101394Y223403
X101394Y211592
X101394Y199781
X101394Y187970
X101394Y176159
X101394Y164348
X101394Y152537
X101394Y140726
X101394Y128915
X101394Y117104
X101394Y105293
X101394Y93482
X101394Y81671
X101394Y69860
X101394Y58049
X101394Y46238
X101394Y34427
X111236Y40332
X111236Y52143
X111236Y63954
X111236Y75765
X111236Y87576
X111236Y99387
X111236Y111198
X111236Y123009
X111236Y134821
X111236Y146632
X111236Y158443
X111236Y170254
X111236Y182065
X111236Y193876
X111236Y205687
X111236Y217498
X111236Y229309
X150606Y229309
X150606Y217498
X150606Y205687
X150606Y193876
X150606Y182065
X150606Y170254
X150606Y158443
X150606Y146632
X150606Y134821
X150606Y123009
X150606Y111198
X150606Y99387
X150606Y87576
X150606Y75765
X150606Y63954
X150606Y52143
X150606Y40332
X150606Y28521
X160449Y34427
X160449Y46238
X160449Y58049
X160449Y69860
X160449Y81671
X160449Y93482
X160449Y105293
X160449Y117104
X160449Y128915
X160449Y140726
X160449Y152537
X160449Y164348
X160449Y176159
X160449Y187970
X160449Y199781
X160449Y211592
X160449Y223403
X160449Y235214
X170291Y229309
X170291Y217498
X170291Y205687
X170291Y193876
X170291Y182065
X170291Y170254
X170291Y158443
X170291Y146632
X170291Y134821
X170291Y123009
X170291Y111198
X170291Y99387
X170291Y87576
X170291Y75765
X170291Y63954
X170291Y52143
X170291Y40332
X170291Y28521
X111236Y28521
T03
X117181Y435017
X136866Y435017
T04
X128953Y404663
X128953Y384663
X154110Y384447
X164110Y394447
X174110Y384447
X198913Y384447
X208913Y394447
X218913Y384447
X194937Y281080
X189937Y273580
X184937Y281080
X97457Y384663
X97457Y404663
X77929Y364387
X67929Y364387
X57929Y364387
X47929Y364387
X40370Y379663
X40370Y409663
X67929Y409663
X67929Y379663
X67929Y334387
X57929Y334387
X47929Y334387
X77929Y334387
T05
X128913Y359348
X128913Y280608
T06
X101551Y246868
X160921Y246868
X205331Y325726
X205331Y355726
T07
X146236Y336120
X146236Y272340
X91118Y304230
M30
