G75*
%MOIN*%
%OFA0B0*%
%FSLAX25Y25*%
%IPPOS*%
%LPD*%
%AMOC8*
5,1,8,0,0,1.08239X$1,22.5*
%
%ADD10C,0.00500*%
%ADD11C,0.00600*%
%ADD12C,0.00800*%
%ADD13C,0.00400*%
%ADD14C,0.00700*%
%ADD15C,0.01000*%
%ADD16R,0.02000X0.01500*%
%ADD17C,0.01200*%
D10*
X0128913Y0259230D02*
X0127814Y0259218D01*
X0126715Y0259233D01*
X0125616Y0259276D01*
X0124519Y0259345D01*
X0123424Y0259441D01*
X0122332Y0259564D01*
X0121243Y0259714D01*
X0120158Y0259890D01*
X0119078Y0260093D01*
X0118003Y0260322D01*
X0116934Y0260578D01*
X0115871Y0260859D01*
X0114816Y0261167D01*
X0113769Y0261501D01*
X0112730Y0261860D01*
X0111700Y0262244D01*
X0110680Y0262654D01*
X0109670Y0263088D01*
X0108672Y0263547D01*
X0107684Y0264031D01*
X0106709Y0264538D01*
X0105747Y0265070D01*
X0104798Y0265624D01*
X0103863Y0266202D01*
X0102943Y0266803D01*
X0102037Y0267426D01*
X0101147Y0268071D01*
X0100273Y0268737D01*
X0099415Y0269425D01*
X0098575Y0270134D01*
X0097753Y0270863D01*
X0096948Y0271612D01*
X0096162Y0272380D01*
X0095395Y0273168D01*
X0094648Y0273974D01*
X0093921Y0274798D01*
X0093214Y0275640D01*
X0092528Y0276499D01*
X0091863Y0277374D01*
X0091220Y0278266D01*
X0090599Y0279173D01*
X0090001Y0280095D01*
X0089425Y0281031D01*
X0088872Y0281981D01*
X0088343Y0282945D01*
X0087838Y0283921D01*
X0087357Y0284909D01*
X0086900Y0285909D01*
X0086467Y0286919D01*
X0086060Y0287940D01*
X0085678Y0288971D01*
X0085321Y0290010D01*
X0084990Y0291059D01*
X0084684Y0292115D01*
X0084405Y0293178D01*
X0084152Y0294247D01*
X0083925Y0295323D01*
X0083724Y0296403D01*
X0083550Y0297489D01*
X0083403Y0298578D01*
X0083282Y0299671D01*
X0083189Y0300766D01*
X0083122Y0301863D01*
X0083082Y0302961D01*
X0083069Y0304061D01*
X0083083Y0305160D01*
X0083124Y0306258D01*
X0083192Y0307355D01*
X0083287Y0308450D01*
X0083408Y0309543D01*
X0083557Y0310632D01*
X0083732Y0311717D01*
X0083933Y0312798D01*
X0084161Y0313873D01*
X0084415Y0314942D01*
X0084696Y0316005D01*
X0085002Y0317061D01*
X0085334Y0318108D01*
X0085692Y0319148D01*
X0086075Y0320178D01*
X0086484Y0321199D01*
X0086917Y0322209D01*
X0087375Y0323208D01*
X0087857Y0324196D01*
X0088364Y0325171D01*
X0088894Y0326134D01*
X0089447Y0327084D01*
X0090024Y0328020D01*
X0090623Y0328941D01*
X0091245Y0329848D01*
X0091889Y0330738D01*
X0092555Y0331613D01*
X0093241Y0332471D01*
X0093949Y0333312D01*
X0094677Y0334136D01*
X0095425Y0334941D01*
X0096193Y0335728D01*
X0096979Y0336496D01*
X0097785Y0337244D01*
X0098608Y0337972D01*
X0099449Y0338680D01*
X0100307Y0339367D01*
X0101181Y0340033D01*
X0102072Y0340677D01*
X0102978Y0341299D01*
X0103900Y0341899D01*
X0104835Y0342476D01*
X0105785Y0343030D01*
X0106747Y0343560D01*
X0107723Y0344067D01*
X0108711Y0344549D01*
X0109710Y0345007D01*
X0110720Y0345441D01*
X0111740Y0345849D01*
X0112770Y0346233D01*
X0113810Y0346591D01*
X0114857Y0346923D01*
X0115913Y0347230D01*
X0115921Y0368730D01*
X0141906Y0368730D01*
X0141913Y0347230D01*
X0157860Y0382197D02*
X0159749Y0382197D01*
X0158805Y0382197D02*
X0158805Y0385597D01*
X0157860Y0384841D01*
X0168610Y0385597D02*
X0169744Y0385597D01*
X0169798Y0385595D01*
X0169852Y0385589D01*
X0169905Y0385580D01*
X0169957Y0385566D01*
X0170008Y0385549D01*
X0170058Y0385529D01*
X0170106Y0385505D01*
X0170153Y0385477D01*
X0170197Y0385446D01*
X0170239Y0385412D01*
X0170279Y0385376D01*
X0170315Y0385336D01*
X0170349Y0385294D01*
X0170380Y0385250D01*
X0170408Y0385203D01*
X0170432Y0385155D01*
X0170452Y0385105D01*
X0170469Y0385054D01*
X0170483Y0385002D01*
X0170492Y0384949D01*
X0170498Y0384895D01*
X0170500Y0384841D01*
X0170498Y0384787D01*
X0170492Y0384733D01*
X0170483Y0384680D01*
X0170469Y0384628D01*
X0170452Y0384577D01*
X0170432Y0384527D01*
X0170408Y0384479D01*
X0170380Y0384432D01*
X0170349Y0384388D01*
X0170315Y0384346D01*
X0170279Y0384306D01*
X0170239Y0384270D01*
X0170197Y0384236D01*
X0170153Y0384205D01*
X0170106Y0384177D01*
X0170058Y0384153D01*
X0170008Y0384133D01*
X0169957Y0384116D01*
X0169905Y0384102D01*
X0169852Y0384093D01*
X0169798Y0384087D01*
X0169744Y0384085D01*
X0168988Y0384085D01*
X0169555Y0384085D02*
X0169615Y0384083D01*
X0169676Y0384077D01*
X0169735Y0384068D01*
X0169794Y0384054D01*
X0169852Y0384037D01*
X0169909Y0384016D01*
X0169965Y0383992D01*
X0170018Y0383964D01*
X0170070Y0383932D01*
X0170120Y0383898D01*
X0170167Y0383860D01*
X0170212Y0383819D01*
X0170254Y0383776D01*
X0170293Y0383730D01*
X0170329Y0383681D01*
X0170362Y0383630D01*
X0170392Y0383578D01*
X0170418Y0383523D01*
X0170441Y0383467D01*
X0170460Y0383410D01*
X0170475Y0383351D01*
X0170487Y0383292D01*
X0170495Y0383232D01*
X0170499Y0383171D01*
X0170499Y0383111D01*
X0170495Y0383050D01*
X0170487Y0382990D01*
X0170475Y0382931D01*
X0170460Y0382872D01*
X0170441Y0382815D01*
X0170418Y0382759D01*
X0170392Y0382704D01*
X0170362Y0382652D01*
X0170329Y0382601D01*
X0170293Y0382552D01*
X0170254Y0382506D01*
X0170212Y0382463D01*
X0170167Y0382422D01*
X0170120Y0382384D01*
X0170070Y0382350D01*
X0170018Y0382318D01*
X0169965Y0382290D01*
X0169909Y0382266D01*
X0169852Y0382245D01*
X0169794Y0382228D01*
X0169735Y0382214D01*
X0169676Y0382205D01*
X0169615Y0382199D01*
X0169555Y0382197D01*
X0168610Y0382197D01*
X0202663Y0382197D02*
X0204552Y0382197D01*
X0203608Y0382197D02*
X0203608Y0385597D01*
X0202663Y0384841D01*
X0213413Y0385597D02*
X0214547Y0385597D01*
X0214601Y0385595D01*
X0214655Y0385589D01*
X0214708Y0385580D01*
X0214760Y0385566D01*
X0214811Y0385549D01*
X0214861Y0385529D01*
X0214909Y0385505D01*
X0214956Y0385477D01*
X0215000Y0385446D01*
X0215042Y0385412D01*
X0215082Y0385376D01*
X0215118Y0385336D01*
X0215152Y0385294D01*
X0215183Y0385250D01*
X0215211Y0385203D01*
X0215235Y0385155D01*
X0215255Y0385105D01*
X0215272Y0385054D01*
X0215286Y0385002D01*
X0215295Y0384949D01*
X0215301Y0384895D01*
X0215303Y0384841D01*
X0215301Y0384787D01*
X0215295Y0384733D01*
X0215286Y0384680D01*
X0215272Y0384628D01*
X0215255Y0384577D01*
X0215235Y0384527D01*
X0215211Y0384479D01*
X0215183Y0384432D01*
X0215152Y0384388D01*
X0215118Y0384346D01*
X0215082Y0384306D01*
X0215042Y0384270D01*
X0215000Y0384236D01*
X0214956Y0384205D01*
X0214909Y0384177D01*
X0214861Y0384153D01*
X0214811Y0384133D01*
X0214760Y0384116D01*
X0214708Y0384102D01*
X0214655Y0384093D01*
X0214601Y0384087D01*
X0214547Y0384085D01*
X0213791Y0384085D01*
X0214358Y0384085D02*
X0214418Y0384083D01*
X0214479Y0384077D01*
X0214538Y0384068D01*
X0214597Y0384054D01*
X0214655Y0384037D01*
X0214712Y0384016D01*
X0214768Y0383992D01*
X0214821Y0383964D01*
X0214873Y0383932D01*
X0214923Y0383898D01*
X0214970Y0383860D01*
X0215015Y0383819D01*
X0215057Y0383776D01*
X0215096Y0383730D01*
X0215132Y0383681D01*
X0215165Y0383630D01*
X0215195Y0383578D01*
X0215221Y0383523D01*
X0215244Y0383467D01*
X0215263Y0383410D01*
X0215278Y0383351D01*
X0215290Y0383292D01*
X0215298Y0383232D01*
X0215302Y0383171D01*
X0215302Y0383111D01*
X0215298Y0383050D01*
X0215290Y0382990D01*
X0215278Y0382931D01*
X0215263Y0382872D01*
X0215244Y0382815D01*
X0215221Y0382759D01*
X0215195Y0382704D01*
X0215165Y0382652D01*
X0215132Y0382601D01*
X0215096Y0382552D01*
X0215057Y0382506D01*
X0215015Y0382463D01*
X0214970Y0382422D01*
X0214923Y0382384D01*
X0214873Y0382350D01*
X0214821Y0382318D01*
X0214768Y0382290D01*
X0214712Y0382266D01*
X0214655Y0382245D01*
X0214597Y0382228D01*
X0214538Y0382214D01*
X0214479Y0382205D01*
X0214418Y0382199D01*
X0214358Y0382197D01*
X0213413Y0382197D01*
X0198183Y0287580D02*
X0181691Y0287580D01*
X0181064Y0282080D02*
X0179485Y0282080D01*
X0188810Y0282080D02*
X0191064Y0282080D01*
X0198183Y0287581D02*
X0198336Y0287382D01*
X0198484Y0287180D01*
X0198627Y0286975D01*
X0198765Y0286766D01*
X0198898Y0286554D01*
X0199026Y0286339D01*
X0199148Y0286121D01*
X0199266Y0285900D01*
X0199378Y0285676D01*
X0199485Y0285450D01*
X0199586Y0285221D01*
X0199682Y0284990D01*
X0199773Y0284756D01*
X0199858Y0284521D01*
X0199937Y0284283D01*
X0200010Y0284044D01*
X0200078Y0283803D01*
X0200140Y0283561D01*
X0200196Y0283317D01*
X0200247Y0283071D01*
X0200291Y0282825D01*
X0200330Y0282578D01*
X0200362Y0282330D01*
X0200389Y0282081D01*
X0200389Y0282080D02*
X0198810Y0282080D01*
X0200389Y0282080D02*
X0200411Y0281825D01*
X0200426Y0281569D01*
X0200434Y0281313D01*
X0200437Y0281056D01*
X0200433Y0280800D01*
X0200423Y0280544D01*
X0200407Y0280288D01*
X0200385Y0280033D01*
X0200356Y0279778D01*
X0200321Y0279524D01*
X0200280Y0279271D01*
X0200233Y0279019D01*
X0200179Y0278769D01*
X0200120Y0278520D01*
X0200054Y0278272D01*
X0199983Y0278026D01*
X0199905Y0277781D01*
X0199822Y0277539D01*
X0199733Y0277299D01*
X0199637Y0277061D01*
X0199536Y0276825D01*
X0199430Y0276592D01*
X0199317Y0276362D01*
X0199199Y0276134D01*
X0199076Y0275910D01*
X0198947Y0275688D01*
X0198813Y0275470D01*
X0198673Y0275255D01*
X0198528Y0275044D01*
X0198378Y0274836D01*
X0198224Y0274632D01*
X0198064Y0274431D01*
X0197899Y0274235D01*
X0197730Y0274043D01*
X0197555Y0273854D01*
X0197377Y0273671D01*
X0197194Y0273491D01*
X0197006Y0273316D01*
X0196815Y0273146D01*
X0196619Y0272981D01*
X0196419Y0272820D01*
X0196216Y0272664D01*
X0196009Y0272514D01*
X0195798Y0272368D01*
X0195583Y0272227D01*
X0195366Y0272092D01*
X0195145Y0271962D01*
X0194921Y0271838D01*
X0194694Y0271719D01*
X0194464Y0271606D01*
X0194231Y0271498D01*
X0193996Y0271396D01*
X0193758Y0271300D01*
X0193519Y0271210D01*
X0193277Y0271125D01*
X0193033Y0271047D01*
X0186841Y0271047D02*
X0186599Y0271125D01*
X0186359Y0271209D01*
X0186121Y0271298D01*
X0185885Y0271393D01*
X0185651Y0271495D01*
X0185420Y0271601D01*
X0185192Y0271714D01*
X0184966Y0271831D01*
X0184743Y0271954D01*
X0184524Y0272083D01*
X0184307Y0272217D01*
X0184094Y0272356D01*
X0183884Y0272500D01*
X0183678Y0272649D01*
X0183476Y0272803D01*
X0183277Y0272962D01*
X0183082Y0273126D01*
X0182891Y0273295D01*
X0182705Y0273468D01*
X0182522Y0273645D01*
X0182344Y0273827D01*
X0182171Y0274013D01*
X0182002Y0274204D01*
X0181838Y0274398D01*
X0181678Y0274596D01*
X0181523Y0274798D01*
X0181374Y0275004D01*
X0181229Y0275213D01*
X0181089Y0275426D01*
X0180955Y0275642D01*
X0180826Y0275862D01*
X0180702Y0276084D01*
X0180583Y0276309D01*
X0180471Y0276537D01*
X0180363Y0276768D01*
X0180262Y0277001D01*
X0180166Y0277237D01*
X0180075Y0277475D01*
X0179991Y0277715D01*
X0179912Y0277957D01*
X0179839Y0278201D01*
X0179773Y0278447D01*
X0179712Y0278694D01*
X0179657Y0278942D01*
X0179608Y0279192D01*
X0179565Y0279443D01*
X0179529Y0279695D01*
X0179498Y0279947D01*
X0179474Y0280201D01*
X0179456Y0280454D01*
X0179444Y0280709D01*
X0179438Y0280963D01*
X0179438Y0281218D01*
X0179444Y0281472D01*
X0179457Y0281726D01*
X0179476Y0281980D01*
X0179501Y0282233D01*
X0179532Y0282486D01*
X0179569Y0282738D01*
X0179612Y0282988D01*
X0179661Y0283238D01*
X0179717Y0283487D01*
X0179778Y0283734D01*
X0179845Y0283979D01*
X0179918Y0284223D01*
X0179997Y0284465D01*
X0180082Y0284704D01*
X0180173Y0284942D01*
X0180270Y0285178D01*
X0180372Y0285411D01*
X0180480Y0285641D01*
X0180593Y0285869D01*
X0180712Y0286094D01*
X0180836Y0286316D01*
X0180966Y0286535D01*
X0181100Y0286751D01*
X0181240Y0286964D01*
X0181386Y0287173D01*
X0181536Y0287378D01*
X0181691Y0287580D01*
X0128913Y0259229D02*
X0130010Y0259204D01*
X0131108Y0259206D01*
X0132205Y0259235D01*
X0133301Y0259291D01*
X0134395Y0259374D01*
X0135487Y0259483D01*
X0136576Y0259620D01*
X0137662Y0259783D01*
X0138743Y0259972D01*
X0139819Y0260188D01*
X0140889Y0260430D01*
X0141953Y0260699D01*
X0143011Y0260993D01*
X0144060Y0261313D01*
X0145102Y0261659D01*
X0146135Y0262031D01*
X0147158Y0262427D01*
X0148171Y0262849D01*
X0149174Y0263295D01*
X0150166Y0263766D01*
X0151145Y0264260D01*
X0152112Y0264779D01*
X0153067Y0265321D01*
X0154007Y0265887D01*
X0154934Y0266475D01*
X0155845Y0267086D01*
X0156742Y0267720D01*
X0157622Y0268374D01*
X0158487Y0269051D01*
X0159334Y0269748D01*
X0160164Y0270466D01*
X0160977Y0271204D01*
X0161771Y0271962D01*
X0162546Y0272739D01*
X0163302Y0273534D01*
X0164038Y0274348D01*
X0164754Y0275180D01*
X0165449Y0276029D01*
X0166123Y0276895D01*
X0166776Y0277777D01*
X0167407Y0278675D01*
X0168016Y0279589D01*
X0168602Y0280516D01*
X0169166Y0281458D01*
X0169706Y0282414D01*
X0170222Y0283382D01*
X0170715Y0284363D01*
X0171183Y0285355D01*
X0171627Y0286359D01*
X0172046Y0287373D01*
X0172441Y0288398D01*
X0172810Y0289431D01*
X0173153Y0290474D01*
X0173471Y0291524D01*
X0173763Y0292582D01*
X0174029Y0293647D01*
X0174269Y0294718D01*
X0174482Y0295794D01*
X0174669Y0296876D01*
X0174829Y0297962D01*
X0174963Y0299051D01*
X0175070Y0300143D01*
X0175150Y0301238D01*
X0175203Y0302334D01*
X0175230Y0303431D01*
X0175229Y0304529D01*
X0175202Y0305626D01*
X0175148Y0306722D01*
X0175066Y0307816D01*
X0174958Y0308909D01*
X0174824Y0309998D01*
X0174662Y0311083D01*
X0174474Y0312165D01*
X0174260Y0313241D01*
X0174019Y0314312D01*
X0173752Y0315376D01*
X0173459Y0316434D01*
X0173140Y0317484D01*
X0172796Y0318526D01*
X0172426Y0319559D01*
X0172031Y0320583D01*
X0171611Y0321597D01*
X0171166Y0322601D01*
X0170697Y0323593D01*
X0170203Y0324573D01*
X0169686Y0325541D01*
X0169145Y0326496D01*
X0168581Y0327437D01*
X0167994Y0328364D01*
X0167384Y0329277D01*
X0166752Y0330174D01*
X0166098Y0331056D01*
X0165423Y0331921D01*
X0164727Y0332770D01*
X0164010Y0333601D01*
X0163273Y0334414D01*
X0162517Y0335209D01*
X0161741Y0335985D01*
X0160946Y0336742D01*
X0160133Y0337480D01*
X0159302Y0338197D01*
X0158454Y0338893D01*
X0157589Y0339569D01*
X0156708Y0340223D01*
X0155811Y0340855D01*
X0154899Y0341465D01*
X0153972Y0342053D01*
X0153031Y0342618D01*
X0152076Y0343159D01*
X0151108Y0343677D01*
X0150128Y0344171D01*
X0149136Y0344640D01*
X0148133Y0345086D01*
X0147119Y0345506D01*
X0146096Y0345902D01*
X0145063Y0346272D01*
X0144021Y0346617D01*
X0142971Y0346937D01*
X0141913Y0347230D01*
D11*
X0104051Y0241868D02*
X0099051Y0241868D01*
X0096551Y0244368D01*
X0096551Y0249368D01*
X0099051Y0251868D01*
X0104051Y0251868D01*
X0106551Y0249368D01*
X0106551Y0244368D01*
X0104051Y0241868D01*
X0155921Y0244368D02*
X0158421Y0241868D01*
X0163421Y0241868D01*
X0165921Y0244368D01*
X0165921Y0249368D01*
X0163421Y0251868D01*
X0158421Y0251868D01*
X0155921Y0249368D01*
X0155921Y0244368D01*
X0200331Y0340726D02*
X0200333Y0340867D01*
X0200339Y0341008D01*
X0200349Y0341148D01*
X0200363Y0341288D01*
X0200381Y0341428D01*
X0200402Y0341567D01*
X0200428Y0341706D01*
X0200457Y0341844D01*
X0200491Y0341980D01*
X0200528Y0342116D01*
X0200569Y0342251D01*
X0200614Y0342385D01*
X0200663Y0342517D01*
X0200715Y0342648D01*
X0200771Y0342777D01*
X0200831Y0342904D01*
X0200894Y0343030D01*
X0200960Y0343154D01*
X0201031Y0343277D01*
X0201104Y0343397D01*
X0201181Y0343515D01*
X0201261Y0343631D01*
X0201345Y0343744D01*
X0201431Y0343855D01*
X0201521Y0343964D01*
X0201614Y0344070D01*
X0201709Y0344173D01*
X0201808Y0344274D01*
X0201909Y0344372D01*
X0202013Y0344467D01*
X0202120Y0344559D01*
X0202229Y0344648D01*
X0202341Y0344733D01*
X0202455Y0344816D01*
X0202571Y0344896D01*
X0202690Y0344972D01*
X0202811Y0345044D01*
X0202933Y0345114D01*
X0203058Y0345179D01*
X0203184Y0345242D01*
X0203312Y0345300D01*
X0203442Y0345355D01*
X0203573Y0345407D01*
X0203706Y0345454D01*
X0203840Y0345498D01*
X0203975Y0345539D01*
X0204111Y0345575D01*
X0204248Y0345607D01*
X0204386Y0345636D01*
X0204524Y0345661D01*
X0204664Y0345681D01*
X0204804Y0345698D01*
X0204944Y0345711D01*
X0205085Y0345720D01*
X0205225Y0345725D01*
X0205366Y0345726D01*
X0205507Y0345723D01*
X0205648Y0345716D01*
X0205788Y0345705D01*
X0205928Y0345690D01*
X0206068Y0345671D01*
X0206207Y0345649D01*
X0206345Y0345622D01*
X0206483Y0345592D01*
X0206619Y0345557D01*
X0206755Y0345519D01*
X0206889Y0345477D01*
X0207023Y0345431D01*
X0207155Y0345382D01*
X0207285Y0345328D01*
X0207414Y0345271D01*
X0207541Y0345211D01*
X0207667Y0345147D01*
X0207790Y0345079D01*
X0207912Y0345008D01*
X0208032Y0344934D01*
X0208149Y0344856D01*
X0208264Y0344775D01*
X0208377Y0344691D01*
X0208488Y0344604D01*
X0208596Y0344513D01*
X0208701Y0344420D01*
X0208804Y0344323D01*
X0208904Y0344224D01*
X0209001Y0344122D01*
X0209095Y0344017D01*
X0209186Y0343910D01*
X0209274Y0343800D01*
X0209359Y0343688D01*
X0209441Y0343573D01*
X0209520Y0343456D01*
X0209595Y0343337D01*
X0209667Y0343216D01*
X0209735Y0343093D01*
X0209800Y0342968D01*
X0209862Y0342841D01*
X0209919Y0342712D01*
X0209974Y0342582D01*
X0210024Y0342451D01*
X0210071Y0342318D01*
X0210114Y0342184D01*
X0210153Y0342048D01*
X0210188Y0341912D01*
X0210220Y0341775D01*
X0210247Y0341637D01*
X0210271Y0341498D01*
X0210291Y0341358D01*
X0210307Y0341218D01*
X0210319Y0341078D01*
X0210327Y0340937D01*
X0210331Y0340796D01*
X0210331Y0340656D01*
X0210327Y0340515D01*
X0210319Y0340374D01*
X0210307Y0340234D01*
X0210291Y0340094D01*
X0210271Y0339954D01*
X0210247Y0339815D01*
X0210220Y0339677D01*
X0210188Y0339540D01*
X0210153Y0339404D01*
X0210114Y0339268D01*
X0210071Y0339134D01*
X0210024Y0339001D01*
X0209974Y0338870D01*
X0209919Y0338740D01*
X0209862Y0338611D01*
X0209800Y0338484D01*
X0209735Y0338359D01*
X0209667Y0338236D01*
X0209595Y0338115D01*
X0209520Y0337996D01*
X0209441Y0337879D01*
X0209359Y0337764D01*
X0209274Y0337652D01*
X0209186Y0337542D01*
X0209095Y0337435D01*
X0209001Y0337330D01*
X0208904Y0337228D01*
X0208804Y0337129D01*
X0208701Y0337032D01*
X0208596Y0336939D01*
X0208488Y0336848D01*
X0208377Y0336761D01*
X0208264Y0336677D01*
X0208149Y0336596D01*
X0208032Y0336518D01*
X0207912Y0336444D01*
X0207790Y0336373D01*
X0207667Y0336305D01*
X0207541Y0336241D01*
X0207414Y0336181D01*
X0207285Y0336124D01*
X0207155Y0336070D01*
X0207023Y0336021D01*
X0206889Y0335975D01*
X0206755Y0335933D01*
X0206619Y0335895D01*
X0206483Y0335860D01*
X0206345Y0335830D01*
X0206207Y0335803D01*
X0206068Y0335781D01*
X0205928Y0335762D01*
X0205788Y0335747D01*
X0205648Y0335736D01*
X0205507Y0335729D01*
X0205366Y0335726D01*
X0205225Y0335727D01*
X0205085Y0335732D01*
X0204944Y0335741D01*
X0204804Y0335754D01*
X0204664Y0335771D01*
X0204524Y0335791D01*
X0204386Y0335816D01*
X0204248Y0335845D01*
X0204111Y0335877D01*
X0203975Y0335913D01*
X0203840Y0335954D01*
X0203706Y0335998D01*
X0203573Y0336045D01*
X0203442Y0336097D01*
X0203312Y0336152D01*
X0203184Y0336210D01*
X0203058Y0336273D01*
X0202933Y0336338D01*
X0202811Y0336408D01*
X0202690Y0336480D01*
X0202571Y0336556D01*
X0202455Y0336636D01*
X0202341Y0336719D01*
X0202229Y0336804D01*
X0202120Y0336893D01*
X0202013Y0336985D01*
X0201909Y0337080D01*
X0201808Y0337178D01*
X0201709Y0337279D01*
X0201614Y0337382D01*
X0201521Y0337488D01*
X0201431Y0337597D01*
X0201345Y0337708D01*
X0201261Y0337821D01*
X0201181Y0337937D01*
X0201104Y0338055D01*
X0201031Y0338175D01*
X0200960Y0338298D01*
X0200894Y0338422D01*
X0200831Y0338548D01*
X0200771Y0338675D01*
X0200715Y0338804D01*
X0200663Y0338935D01*
X0200614Y0339067D01*
X0200569Y0339201D01*
X0200528Y0339336D01*
X0200491Y0339472D01*
X0200457Y0339608D01*
X0200428Y0339746D01*
X0200402Y0339885D01*
X0200381Y0340024D01*
X0200363Y0340164D01*
X0200349Y0340304D01*
X0200339Y0340444D01*
X0200333Y0340585D01*
X0200331Y0340726D01*
X0177831Y0340726D02*
X0177839Y0341401D01*
X0177864Y0342075D01*
X0177906Y0342749D01*
X0177963Y0343421D01*
X0178038Y0344092D01*
X0178129Y0344761D01*
X0178236Y0345427D01*
X0178359Y0346091D01*
X0178499Y0346751D01*
X0178655Y0347408D01*
X0178827Y0348061D01*
X0179015Y0348709D01*
X0179219Y0349352D01*
X0179439Y0349990D01*
X0179674Y0350623D01*
X0179924Y0351250D01*
X0180190Y0351870D01*
X0180471Y0352484D01*
X0180767Y0353090D01*
X0181078Y0353689D01*
X0181404Y0354281D01*
X0181743Y0354864D01*
X0182098Y0355438D01*
X0182466Y0356004D01*
X0182847Y0356561D01*
X0183243Y0357108D01*
X0183651Y0357645D01*
X0184073Y0358172D01*
X0184508Y0358688D01*
X0184955Y0359194D01*
X0185414Y0359688D01*
X0185886Y0360171D01*
X0186369Y0360643D01*
X0186863Y0361102D01*
X0187369Y0361549D01*
X0187885Y0361984D01*
X0188412Y0362406D01*
X0188949Y0362814D01*
X0189496Y0363210D01*
X0190053Y0363591D01*
X0190619Y0363959D01*
X0191193Y0364314D01*
X0191776Y0364653D01*
X0192368Y0364979D01*
X0192967Y0365290D01*
X0193573Y0365586D01*
X0194187Y0365867D01*
X0194807Y0366133D01*
X0195434Y0366383D01*
X0196067Y0366618D01*
X0196705Y0366838D01*
X0197348Y0367042D01*
X0197996Y0367230D01*
X0198649Y0367402D01*
X0199306Y0367558D01*
X0199966Y0367698D01*
X0200630Y0367821D01*
X0201296Y0367928D01*
X0201965Y0368019D01*
X0202636Y0368094D01*
X0203308Y0368151D01*
X0203982Y0368193D01*
X0204656Y0368218D01*
X0205331Y0368226D01*
X0206006Y0368218D01*
X0206680Y0368193D01*
X0207354Y0368151D01*
X0208026Y0368094D01*
X0208697Y0368019D01*
X0209366Y0367928D01*
X0210032Y0367821D01*
X0210696Y0367698D01*
X0211356Y0367558D01*
X0212013Y0367402D01*
X0212666Y0367230D01*
X0213314Y0367042D01*
X0213957Y0366838D01*
X0214595Y0366618D01*
X0215228Y0366383D01*
X0215855Y0366133D01*
X0216475Y0365867D01*
X0217089Y0365586D01*
X0217695Y0365290D01*
X0218294Y0364979D01*
X0218886Y0364653D01*
X0219469Y0364314D01*
X0220043Y0363959D01*
X0220609Y0363591D01*
X0221166Y0363210D01*
X0221713Y0362814D01*
X0222250Y0362406D01*
X0222777Y0361984D01*
X0223293Y0361549D01*
X0223799Y0361102D01*
X0224293Y0360643D01*
X0224776Y0360171D01*
X0225248Y0359688D01*
X0225707Y0359194D01*
X0226154Y0358688D01*
X0226589Y0358172D01*
X0227011Y0357645D01*
X0227419Y0357108D01*
X0227815Y0356561D01*
X0228196Y0356004D01*
X0228564Y0355438D01*
X0228919Y0354864D01*
X0229258Y0354281D01*
X0229584Y0353689D01*
X0229895Y0353090D01*
X0230191Y0352484D01*
X0230472Y0351870D01*
X0230738Y0351250D01*
X0230988Y0350623D01*
X0231223Y0349990D01*
X0231443Y0349352D01*
X0231647Y0348709D01*
X0231835Y0348061D01*
X0232007Y0347408D01*
X0232163Y0346751D01*
X0232303Y0346091D01*
X0232426Y0345427D01*
X0232533Y0344761D01*
X0232624Y0344092D01*
X0232699Y0343421D01*
X0232756Y0342749D01*
X0232798Y0342075D01*
X0232823Y0341401D01*
X0232831Y0340726D01*
X0232823Y0340051D01*
X0232798Y0339377D01*
X0232756Y0338703D01*
X0232699Y0338031D01*
X0232624Y0337360D01*
X0232533Y0336691D01*
X0232426Y0336025D01*
X0232303Y0335361D01*
X0232163Y0334701D01*
X0232007Y0334044D01*
X0231835Y0333391D01*
X0231647Y0332743D01*
X0231443Y0332100D01*
X0231223Y0331462D01*
X0230988Y0330829D01*
X0230738Y0330202D01*
X0230472Y0329582D01*
X0230191Y0328968D01*
X0229895Y0328362D01*
X0229584Y0327763D01*
X0229258Y0327171D01*
X0228919Y0326588D01*
X0228564Y0326014D01*
X0228196Y0325448D01*
X0227815Y0324891D01*
X0227419Y0324344D01*
X0227011Y0323807D01*
X0226589Y0323280D01*
X0226154Y0322764D01*
X0225707Y0322258D01*
X0225248Y0321764D01*
X0224776Y0321281D01*
X0224293Y0320809D01*
X0223799Y0320350D01*
X0223293Y0319903D01*
X0222777Y0319468D01*
X0222250Y0319046D01*
X0221713Y0318638D01*
X0221166Y0318242D01*
X0220609Y0317861D01*
X0220043Y0317493D01*
X0219469Y0317138D01*
X0218886Y0316799D01*
X0218294Y0316473D01*
X0217695Y0316162D01*
X0217089Y0315866D01*
X0216475Y0315585D01*
X0215855Y0315319D01*
X0215228Y0315069D01*
X0214595Y0314834D01*
X0213957Y0314614D01*
X0213314Y0314410D01*
X0212666Y0314222D01*
X0212013Y0314050D01*
X0211356Y0313894D01*
X0210696Y0313754D01*
X0210032Y0313631D01*
X0209366Y0313524D01*
X0208697Y0313433D01*
X0208026Y0313358D01*
X0207354Y0313301D01*
X0206680Y0313259D01*
X0206006Y0313234D01*
X0205331Y0313226D01*
X0204656Y0313234D01*
X0203982Y0313259D01*
X0203308Y0313301D01*
X0202636Y0313358D01*
X0201965Y0313433D01*
X0201296Y0313524D01*
X0200630Y0313631D01*
X0199966Y0313754D01*
X0199306Y0313894D01*
X0198649Y0314050D01*
X0197996Y0314222D01*
X0197348Y0314410D01*
X0196705Y0314614D01*
X0196067Y0314834D01*
X0195434Y0315069D01*
X0194807Y0315319D01*
X0194187Y0315585D01*
X0193573Y0315866D01*
X0192967Y0316162D01*
X0192368Y0316473D01*
X0191776Y0316799D01*
X0191193Y0317138D01*
X0190619Y0317493D01*
X0190053Y0317861D01*
X0189496Y0318242D01*
X0188949Y0318638D01*
X0188412Y0319046D01*
X0187885Y0319468D01*
X0187369Y0319903D01*
X0186863Y0320350D01*
X0186369Y0320809D01*
X0185886Y0321281D01*
X0185414Y0321764D01*
X0184955Y0322258D01*
X0184508Y0322764D01*
X0184073Y0323280D01*
X0183651Y0323807D01*
X0183243Y0324344D01*
X0182847Y0324891D01*
X0182466Y0325448D01*
X0182098Y0326014D01*
X0181743Y0326588D01*
X0181404Y0327171D01*
X0181078Y0327763D01*
X0180767Y0328362D01*
X0180471Y0328968D01*
X0180190Y0329582D01*
X0179924Y0330202D01*
X0179674Y0330829D01*
X0179439Y0331462D01*
X0179219Y0332100D01*
X0179015Y0332743D01*
X0178827Y0333391D01*
X0178655Y0334044D01*
X0178499Y0334701D01*
X0178359Y0335361D01*
X0178236Y0336025D01*
X0178129Y0336691D01*
X0178038Y0337360D01*
X0177963Y0338031D01*
X0177906Y0338703D01*
X0177864Y0339377D01*
X0177839Y0340051D01*
X0177831Y0340726D01*
X0188331Y0355726D02*
X0188333Y0355867D01*
X0188339Y0356008D01*
X0188349Y0356148D01*
X0188363Y0356288D01*
X0188381Y0356428D01*
X0188402Y0356567D01*
X0188428Y0356706D01*
X0188457Y0356844D01*
X0188491Y0356980D01*
X0188528Y0357116D01*
X0188569Y0357251D01*
X0188614Y0357385D01*
X0188663Y0357517D01*
X0188715Y0357648D01*
X0188771Y0357777D01*
X0188831Y0357904D01*
X0188894Y0358030D01*
X0188960Y0358154D01*
X0189031Y0358277D01*
X0189104Y0358397D01*
X0189181Y0358515D01*
X0189261Y0358631D01*
X0189345Y0358744D01*
X0189431Y0358855D01*
X0189521Y0358964D01*
X0189614Y0359070D01*
X0189709Y0359173D01*
X0189808Y0359274D01*
X0189909Y0359372D01*
X0190013Y0359467D01*
X0190120Y0359559D01*
X0190229Y0359648D01*
X0190341Y0359733D01*
X0190455Y0359816D01*
X0190571Y0359896D01*
X0190690Y0359972D01*
X0190811Y0360044D01*
X0190933Y0360114D01*
X0191058Y0360179D01*
X0191184Y0360242D01*
X0191312Y0360300D01*
X0191442Y0360355D01*
X0191573Y0360407D01*
X0191706Y0360454D01*
X0191840Y0360498D01*
X0191975Y0360539D01*
X0192111Y0360575D01*
X0192248Y0360607D01*
X0192386Y0360636D01*
X0192524Y0360661D01*
X0192664Y0360681D01*
X0192804Y0360698D01*
X0192944Y0360711D01*
X0193085Y0360720D01*
X0193225Y0360725D01*
X0193366Y0360726D01*
X0193507Y0360723D01*
X0193648Y0360716D01*
X0193788Y0360705D01*
X0193928Y0360690D01*
X0194068Y0360671D01*
X0194207Y0360649D01*
X0194345Y0360622D01*
X0194483Y0360592D01*
X0194619Y0360557D01*
X0194755Y0360519D01*
X0194889Y0360477D01*
X0195023Y0360431D01*
X0195155Y0360382D01*
X0195285Y0360328D01*
X0195414Y0360271D01*
X0195541Y0360211D01*
X0195667Y0360147D01*
X0195790Y0360079D01*
X0195912Y0360008D01*
X0196032Y0359934D01*
X0196149Y0359856D01*
X0196264Y0359775D01*
X0196377Y0359691D01*
X0196488Y0359604D01*
X0196596Y0359513D01*
X0196701Y0359420D01*
X0196804Y0359323D01*
X0196904Y0359224D01*
X0197001Y0359122D01*
X0197095Y0359017D01*
X0197186Y0358910D01*
X0197274Y0358800D01*
X0197359Y0358688D01*
X0197441Y0358573D01*
X0197520Y0358456D01*
X0197595Y0358337D01*
X0197667Y0358216D01*
X0197735Y0358093D01*
X0197800Y0357968D01*
X0197862Y0357841D01*
X0197919Y0357712D01*
X0197974Y0357582D01*
X0198024Y0357451D01*
X0198071Y0357318D01*
X0198114Y0357184D01*
X0198153Y0357048D01*
X0198188Y0356912D01*
X0198220Y0356775D01*
X0198247Y0356637D01*
X0198271Y0356498D01*
X0198291Y0356358D01*
X0198307Y0356218D01*
X0198319Y0356078D01*
X0198327Y0355937D01*
X0198331Y0355796D01*
X0198331Y0355656D01*
X0198327Y0355515D01*
X0198319Y0355374D01*
X0198307Y0355234D01*
X0198291Y0355094D01*
X0198271Y0354954D01*
X0198247Y0354815D01*
X0198220Y0354677D01*
X0198188Y0354540D01*
X0198153Y0354404D01*
X0198114Y0354268D01*
X0198071Y0354134D01*
X0198024Y0354001D01*
X0197974Y0353870D01*
X0197919Y0353740D01*
X0197862Y0353611D01*
X0197800Y0353484D01*
X0197735Y0353359D01*
X0197667Y0353236D01*
X0197595Y0353115D01*
X0197520Y0352996D01*
X0197441Y0352879D01*
X0197359Y0352764D01*
X0197274Y0352652D01*
X0197186Y0352542D01*
X0197095Y0352435D01*
X0197001Y0352330D01*
X0196904Y0352228D01*
X0196804Y0352129D01*
X0196701Y0352032D01*
X0196596Y0351939D01*
X0196488Y0351848D01*
X0196377Y0351761D01*
X0196264Y0351677D01*
X0196149Y0351596D01*
X0196032Y0351518D01*
X0195912Y0351444D01*
X0195790Y0351373D01*
X0195667Y0351305D01*
X0195541Y0351241D01*
X0195414Y0351181D01*
X0195285Y0351124D01*
X0195155Y0351070D01*
X0195023Y0351021D01*
X0194889Y0350975D01*
X0194755Y0350933D01*
X0194619Y0350895D01*
X0194483Y0350860D01*
X0194345Y0350830D01*
X0194207Y0350803D01*
X0194068Y0350781D01*
X0193928Y0350762D01*
X0193788Y0350747D01*
X0193648Y0350736D01*
X0193507Y0350729D01*
X0193366Y0350726D01*
X0193225Y0350727D01*
X0193085Y0350732D01*
X0192944Y0350741D01*
X0192804Y0350754D01*
X0192664Y0350771D01*
X0192524Y0350791D01*
X0192386Y0350816D01*
X0192248Y0350845D01*
X0192111Y0350877D01*
X0191975Y0350913D01*
X0191840Y0350954D01*
X0191706Y0350998D01*
X0191573Y0351045D01*
X0191442Y0351097D01*
X0191312Y0351152D01*
X0191184Y0351210D01*
X0191058Y0351273D01*
X0190933Y0351338D01*
X0190811Y0351408D01*
X0190690Y0351480D01*
X0190571Y0351556D01*
X0190455Y0351636D01*
X0190341Y0351719D01*
X0190229Y0351804D01*
X0190120Y0351893D01*
X0190013Y0351985D01*
X0189909Y0352080D01*
X0189808Y0352178D01*
X0189709Y0352279D01*
X0189614Y0352382D01*
X0189521Y0352488D01*
X0189431Y0352597D01*
X0189345Y0352708D01*
X0189261Y0352821D01*
X0189181Y0352937D01*
X0189104Y0353055D01*
X0189031Y0353175D01*
X0188960Y0353298D01*
X0188894Y0353422D01*
X0188831Y0353548D01*
X0188771Y0353675D01*
X0188715Y0353804D01*
X0188663Y0353935D01*
X0188614Y0354067D01*
X0188569Y0354201D01*
X0188528Y0354336D01*
X0188491Y0354472D01*
X0188457Y0354608D01*
X0188428Y0354746D01*
X0188402Y0354885D01*
X0188381Y0355024D01*
X0188363Y0355164D01*
X0188349Y0355304D01*
X0188339Y0355444D01*
X0188333Y0355585D01*
X0188331Y0355726D01*
X0133953Y0381163D02*
X0133953Y0408163D01*
X0133951Y0408223D01*
X0133946Y0408284D01*
X0133937Y0408343D01*
X0133924Y0408402D01*
X0133908Y0408461D01*
X0133888Y0408518D01*
X0133865Y0408573D01*
X0133838Y0408628D01*
X0133809Y0408680D01*
X0133776Y0408731D01*
X0133740Y0408780D01*
X0133702Y0408826D01*
X0133660Y0408870D01*
X0133616Y0408912D01*
X0133570Y0408950D01*
X0133521Y0408986D01*
X0133470Y0409019D01*
X0133418Y0409048D01*
X0133363Y0409075D01*
X0133308Y0409098D01*
X0133251Y0409118D01*
X0133192Y0409134D01*
X0133133Y0409147D01*
X0133074Y0409156D01*
X0133013Y0409161D01*
X0132953Y0409163D01*
X0124953Y0409163D01*
X0124893Y0409161D01*
X0124832Y0409156D01*
X0124773Y0409147D01*
X0124714Y0409134D01*
X0124655Y0409118D01*
X0124598Y0409098D01*
X0124543Y0409075D01*
X0124488Y0409048D01*
X0124436Y0409019D01*
X0124385Y0408986D01*
X0124336Y0408950D01*
X0124290Y0408912D01*
X0124246Y0408870D01*
X0124204Y0408826D01*
X0124166Y0408780D01*
X0124130Y0408731D01*
X0124097Y0408680D01*
X0124068Y0408628D01*
X0124041Y0408573D01*
X0124018Y0408518D01*
X0123998Y0408461D01*
X0123982Y0408402D01*
X0123969Y0408343D01*
X0123960Y0408284D01*
X0123955Y0408223D01*
X0123953Y0408163D01*
X0123953Y0381163D01*
X0123955Y0381103D01*
X0123960Y0381042D01*
X0123969Y0380983D01*
X0123982Y0380924D01*
X0123998Y0380865D01*
X0124018Y0380808D01*
X0124041Y0380753D01*
X0124068Y0380698D01*
X0124097Y0380646D01*
X0124130Y0380595D01*
X0124166Y0380546D01*
X0124204Y0380500D01*
X0124246Y0380456D01*
X0124290Y0380414D01*
X0124336Y0380376D01*
X0124385Y0380340D01*
X0124436Y0380307D01*
X0124488Y0380278D01*
X0124543Y0380251D01*
X0124598Y0380228D01*
X0124655Y0380208D01*
X0124714Y0380192D01*
X0124773Y0380179D01*
X0124832Y0380170D01*
X0124893Y0380165D01*
X0124953Y0380163D01*
X0132953Y0380163D01*
X0133013Y0380165D01*
X0133074Y0380170D01*
X0133133Y0380179D01*
X0133192Y0380192D01*
X0133251Y0380208D01*
X0133308Y0380228D01*
X0133363Y0380251D01*
X0133418Y0380278D01*
X0133470Y0380307D01*
X0133521Y0380340D01*
X0133570Y0380376D01*
X0133616Y0380414D01*
X0133660Y0380456D01*
X0133702Y0380500D01*
X0133740Y0380546D01*
X0133776Y0380595D01*
X0133809Y0380646D01*
X0133838Y0380698D01*
X0133865Y0380753D01*
X0133888Y0380808D01*
X0133908Y0380865D01*
X0133924Y0380924D01*
X0133937Y0380983D01*
X0133946Y0381042D01*
X0133951Y0381103D01*
X0133953Y0381163D01*
X0128953Y0388663D02*
X0128953Y0393463D01*
X0128953Y0395963D02*
X0128953Y0400663D01*
X0102457Y0408163D02*
X0102457Y0381163D01*
X0102455Y0381103D01*
X0102450Y0381042D01*
X0102441Y0380983D01*
X0102428Y0380924D01*
X0102412Y0380865D01*
X0102392Y0380808D01*
X0102369Y0380753D01*
X0102342Y0380698D01*
X0102313Y0380646D01*
X0102280Y0380595D01*
X0102244Y0380546D01*
X0102206Y0380500D01*
X0102164Y0380456D01*
X0102120Y0380414D01*
X0102074Y0380376D01*
X0102025Y0380340D01*
X0101974Y0380307D01*
X0101922Y0380278D01*
X0101867Y0380251D01*
X0101812Y0380228D01*
X0101755Y0380208D01*
X0101696Y0380192D01*
X0101637Y0380179D01*
X0101578Y0380170D01*
X0101517Y0380165D01*
X0101457Y0380163D01*
X0093457Y0380163D01*
X0093397Y0380165D01*
X0093336Y0380170D01*
X0093277Y0380179D01*
X0093218Y0380192D01*
X0093159Y0380208D01*
X0093102Y0380228D01*
X0093047Y0380251D01*
X0092992Y0380278D01*
X0092940Y0380307D01*
X0092889Y0380340D01*
X0092840Y0380376D01*
X0092794Y0380414D01*
X0092750Y0380456D01*
X0092708Y0380500D01*
X0092670Y0380546D01*
X0092634Y0380595D01*
X0092601Y0380646D01*
X0092572Y0380698D01*
X0092545Y0380753D01*
X0092522Y0380808D01*
X0092502Y0380865D01*
X0092486Y0380924D01*
X0092473Y0380983D01*
X0092464Y0381042D01*
X0092459Y0381103D01*
X0092457Y0381163D01*
X0092457Y0408163D01*
X0092459Y0408223D01*
X0092464Y0408284D01*
X0092473Y0408343D01*
X0092486Y0408402D01*
X0092502Y0408461D01*
X0092522Y0408518D01*
X0092545Y0408573D01*
X0092572Y0408628D01*
X0092601Y0408680D01*
X0092634Y0408731D01*
X0092670Y0408780D01*
X0092708Y0408826D01*
X0092750Y0408870D01*
X0092794Y0408912D01*
X0092840Y0408950D01*
X0092889Y0408986D01*
X0092940Y0409019D01*
X0092992Y0409048D01*
X0093047Y0409075D01*
X0093102Y0409098D01*
X0093159Y0409118D01*
X0093218Y0409134D01*
X0093277Y0409147D01*
X0093336Y0409156D01*
X0093397Y0409161D01*
X0093457Y0409163D01*
X0101457Y0409163D01*
X0101517Y0409161D01*
X0101578Y0409156D01*
X0101637Y0409147D01*
X0101696Y0409134D01*
X0101755Y0409118D01*
X0101812Y0409098D01*
X0101867Y0409075D01*
X0101922Y0409048D01*
X0101974Y0409019D01*
X0102025Y0408986D01*
X0102074Y0408950D01*
X0102120Y0408912D01*
X0102164Y0408870D01*
X0102206Y0408826D01*
X0102244Y0408780D01*
X0102280Y0408731D01*
X0102313Y0408680D01*
X0102342Y0408628D01*
X0102369Y0408573D01*
X0102392Y0408518D01*
X0102412Y0408461D01*
X0102428Y0408402D01*
X0102441Y0408343D01*
X0102450Y0408284D01*
X0102455Y0408223D01*
X0102457Y0408163D01*
X0097457Y0400663D02*
X0097457Y0395963D01*
X0097457Y0393463D02*
X0097457Y0388663D01*
X0082929Y0360887D02*
X0082929Y0337887D01*
X0042929Y0337887D01*
X0042929Y0345387D01*
X0043055Y0345389D01*
X0043180Y0345395D01*
X0043305Y0345405D01*
X0043430Y0345419D01*
X0043555Y0345436D01*
X0043679Y0345458D01*
X0043802Y0345483D01*
X0043924Y0345513D01*
X0044045Y0345546D01*
X0044165Y0345583D01*
X0044284Y0345623D01*
X0044401Y0345668D01*
X0044518Y0345716D01*
X0044632Y0345768D01*
X0044745Y0345823D01*
X0044856Y0345882D01*
X0044965Y0345944D01*
X0045072Y0346010D01*
X0045177Y0346079D01*
X0045280Y0346151D01*
X0045381Y0346226D01*
X0045479Y0346305D01*
X0045574Y0346387D01*
X0045667Y0346471D01*
X0045757Y0346559D01*
X0045845Y0346649D01*
X0045929Y0346742D01*
X0046011Y0346837D01*
X0046090Y0346935D01*
X0046165Y0347036D01*
X0046237Y0347139D01*
X0046306Y0347244D01*
X0046372Y0347351D01*
X0046434Y0347460D01*
X0046493Y0347571D01*
X0046548Y0347684D01*
X0046600Y0347798D01*
X0046648Y0347915D01*
X0046693Y0348032D01*
X0046733Y0348151D01*
X0046770Y0348271D01*
X0046803Y0348392D01*
X0046833Y0348514D01*
X0046858Y0348637D01*
X0046880Y0348761D01*
X0046897Y0348886D01*
X0046911Y0349011D01*
X0046921Y0349136D01*
X0046927Y0349261D01*
X0046929Y0349387D01*
X0046927Y0349513D01*
X0046921Y0349638D01*
X0046911Y0349763D01*
X0046897Y0349888D01*
X0046880Y0350013D01*
X0046858Y0350137D01*
X0046833Y0350260D01*
X0046803Y0350382D01*
X0046770Y0350503D01*
X0046733Y0350623D01*
X0046693Y0350742D01*
X0046648Y0350859D01*
X0046600Y0350976D01*
X0046548Y0351090D01*
X0046493Y0351203D01*
X0046434Y0351314D01*
X0046372Y0351423D01*
X0046306Y0351530D01*
X0046237Y0351635D01*
X0046165Y0351738D01*
X0046090Y0351839D01*
X0046011Y0351937D01*
X0045929Y0352032D01*
X0045845Y0352125D01*
X0045757Y0352215D01*
X0045667Y0352303D01*
X0045574Y0352387D01*
X0045479Y0352469D01*
X0045381Y0352548D01*
X0045280Y0352623D01*
X0045177Y0352695D01*
X0045072Y0352764D01*
X0044965Y0352830D01*
X0044856Y0352892D01*
X0044745Y0352951D01*
X0044632Y0353006D01*
X0044518Y0353058D01*
X0044401Y0353106D01*
X0044284Y0353151D01*
X0044165Y0353191D01*
X0044045Y0353228D01*
X0043924Y0353261D01*
X0043802Y0353291D01*
X0043679Y0353316D01*
X0043555Y0353338D01*
X0043430Y0353355D01*
X0043305Y0353369D01*
X0043180Y0353379D01*
X0043055Y0353385D01*
X0042929Y0353387D01*
X0042929Y0360887D01*
X0082929Y0360887D01*
X0070929Y0384663D02*
X0064929Y0384663D01*
X0064869Y0384665D01*
X0064808Y0384670D01*
X0064749Y0384679D01*
X0064690Y0384692D01*
X0064631Y0384708D01*
X0064574Y0384728D01*
X0064519Y0384751D01*
X0064464Y0384778D01*
X0064412Y0384807D01*
X0064361Y0384840D01*
X0064312Y0384876D01*
X0064266Y0384914D01*
X0064222Y0384956D01*
X0064180Y0385000D01*
X0064142Y0385046D01*
X0064106Y0385095D01*
X0064073Y0385146D01*
X0064044Y0385198D01*
X0064017Y0385253D01*
X0063994Y0385308D01*
X0063974Y0385365D01*
X0063958Y0385424D01*
X0063945Y0385483D01*
X0063936Y0385542D01*
X0063931Y0385603D01*
X0063929Y0385663D01*
X0063929Y0387163D01*
X0064429Y0387663D01*
X0064429Y0401663D01*
X0063929Y0402163D01*
X0063929Y0403663D01*
X0063931Y0403723D01*
X0063936Y0403784D01*
X0063945Y0403843D01*
X0063958Y0403902D01*
X0063974Y0403961D01*
X0063994Y0404018D01*
X0064017Y0404073D01*
X0064044Y0404128D01*
X0064073Y0404180D01*
X0064106Y0404231D01*
X0064142Y0404280D01*
X0064180Y0404326D01*
X0064222Y0404370D01*
X0064266Y0404412D01*
X0064312Y0404450D01*
X0064361Y0404486D01*
X0064412Y0404519D01*
X0064464Y0404548D01*
X0064519Y0404575D01*
X0064574Y0404598D01*
X0064631Y0404618D01*
X0064690Y0404634D01*
X0064749Y0404647D01*
X0064808Y0404656D01*
X0064869Y0404661D01*
X0064929Y0404663D01*
X0070929Y0404663D01*
X0070989Y0404661D01*
X0071050Y0404656D01*
X0071109Y0404647D01*
X0071168Y0404634D01*
X0071227Y0404618D01*
X0071284Y0404598D01*
X0071339Y0404575D01*
X0071394Y0404548D01*
X0071446Y0404519D01*
X0071497Y0404486D01*
X0071546Y0404450D01*
X0071592Y0404412D01*
X0071636Y0404370D01*
X0071678Y0404326D01*
X0071716Y0404280D01*
X0071752Y0404231D01*
X0071785Y0404180D01*
X0071814Y0404128D01*
X0071841Y0404073D01*
X0071864Y0404018D01*
X0071884Y0403961D01*
X0071900Y0403902D01*
X0071913Y0403843D01*
X0071922Y0403784D01*
X0071927Y0403723D01*
X0071929Y0403663D01*
X0071929Y0402163D01*
X0071429Y0401663D01*
X0071429Y0387663D01*
X0071929Y0387163D01*
X0071929Y0385663D01*
X0071927Y0385603D01*
X0071922Y0385542D01*
X0071913Y0385483D01*
X0071900Y0385424D01*
X0071884Y0385365D01*
X0071864Y0385308D01*
X0071841Y0385253D01*
X0071814Y0385198D01*
X0071785Y0385146D01*
X0071752Y0385095D01*
X0071716Y0385046D01*
X0071678Y0385000D01*
X0071636Y0384956D01*
X0071592Y0384914D01*
X0071546Y0384876D01*
X0071497Y0384840D01*
X0071446Y0384807D01*
X0071394Y0384778D01*
X0071339Y0384751D01*
X0071284Y0384728D01*
X0071227Y0384708D01*
X0071168Y0384692D01*
X0071109Y0384679D01*
X0071050Y0384670D01*
X0070989Y0384665D01*
X0070929Y0384663D01*
X0044370Y0385663D02*
X0044370Y0387163D01*
X0043870Y0387663D01*
X0043870Y0401663D01*
X0044370Y0402163D01*
X0044370Y0403663D01*
X0044368Y0403723D01*
X0044363Y0403784D01*
X0044354Y0403843D01*
X0044341Y0403902D01*
X0044325Y0403961D01*
X0044305Y0404018D01*
X0044282Y0404073D01*
X0044255Y0404128D01*
X0044226Y0404180D01*
X0044193Y0404231D01*
X0044157Y0404280D01*
X0044119Y0404326D01*
X0044077Y0404370D01*
X0044033Y0404412D01*
X0043987Y0404450D01*
X0043938Y0404486D01*
X0043887Y0404519D01*
X0043835Y0404548D01*
X0043780Y0404575D01*
X0043725Y0404598D01*
X0043668Y0404618D01*
X0043609Y0404634D01*
X0043550Y0404647D01*
X0043491Y0404656D01*
X0043430Y0404661D01*
X0043370Y0404663D01*
X0037370Y0404663D01*
X0037310Y0404661D01*
X0037249Y0404656D01*
X0037190Y0404647D01*
X0037131Y0404634D01*
X0037072Y0404618D01*
X0037015Y0404598D01*
X0036960Y0404575D01*
X0036905Y0404548D01*
X0036853Y0404519D01*
X0036802Y0404486D01*
X0036753Y0404450D01*
X0036707Y0404412D01*
X0036663Y0404370D01*
X0036621Y0404326D01*
X0036583Y0404280D01*
X0036547Y0404231D01*
X0036514Y0404180D01*
X0036485Y0404128D01*
X0036458Y0404073D01*
X0036435Y0404018D01*
X0036415Y0403961D01*
X0036399Y0403902D01*
X0036386Y0403843D01*
X0036377Y0403784D01*
X0036372Y0403723D01*
X0036370Y0403663D01*
X0036370Y0402163D01*
X0036870Y0401663D01*
X0036870Y0387663D01*
X0036370Y0387163D01*
X0036370Y0385663D01*
X0036372Y0385603D01*
X0036377Y0385542D01*
X0036386Y0385483D01*
X0036399Y0385424D01*
X0036415Y0385365D01*
X0036435Y0385308D01*
X0036458Y0385253D01*
X0036485Y0385198D01*
X0036514Y0385146D01*
X0036547Y0385095D01*
X0036583Y0385046D01*
X0036621Y0385000D01*
X0036663Y0384956D01*
X0036707Y0384914D01*
X0036753Y0384876D01*
X0036802Y0384840D01*
X0036853Y0384807D01*
X0036905Y0384778D01*
X0036960Y0384751D01*
X0037015Y0384728D01*
X0037072Y0384708D01*
X0037131Y0384692D01*
X0037190Y0384679D01*
X0037249Y0384670D01*
X0037310Y0384665D01*
X0037370Y0384663D01*
X0043370Y0384663D01*
X0043430Y0384665D01*
X0043491Y0384670D01*
X0043550Y0384679D01*
X0043609Y0384692D01*
X0043668Y0384708D01*
X0043725Y0384728D01*
X0043780Y0384751D01*
X0043835Y0384778D01*
X0043887Y0384807D01*
X0043938Y0384840D01*
X0043987Y0384876D01*
X0044033Y0384914D01*
X0044077Y0384956D01*
X0044119Y0385000D01*
X0044157Y0385046D01*
X0044193Y0385095D01*
X0044226Y0385146D01*
X0044255Y0385198D01*
X0044282Y0385253D01*
X0044305Y0385308D01*
X0044325Y0385365D01*
X0044341Y0385424D01*
X0044354Y0385483D01*
X0044363Y0385542D01*
X0044368Y0385603D01*
X0044370Y0385663D01*
D12*
X0111079Y0434821D02*
X0111084Y0435209D01*
X0111098Y0435597D01*
X0111122Y0435985D01*
X0111155Y0436372D01*
X0111197Y0436758D01*
X0111249Y0437143D01*
X0111310Y0437526D01*
X0111381Y0437908D01*
X0111460Y0438288D01*
X0111550Y0438666D01*
X0111648Y0439042D01*
X0111755Y0439415D01*
X0111871Y0439785D01*
X0111997Y0440153D01*
X0112131Y0440517D01*
X0112274Y0440878D01*
X0112426Y0441235D01*
X0112587Y0441589D01*
X0112756Y0441939D01*
X0112933Y0442284D01*
X0113119Y0442625D01*
X0113313Y0442961D01*
X0113516Y0443293D01*
X0113726Y0443619D01*
X0113944Y0443940D01*
X0114170Y0444256D01*
X0114404Y0444566D01*
X0114645Y0444871D01*
X0114893Y0445169D01*
X0115149Y0445461D01*
X0115411Y0445747D01*
X0115681Y0446027D01*
X0115957Y0446300D01*
X0116240Y0446566D01*
X0116529Y0446825D01*
X0116824Y0447077D01*
X0117126Y0447322D01*
X0117433Y0447559D01*
X0117746Y0447789D01*
X0118065Y0448011D01*
X0118389Y0448225D01*
X0118718Y0448432D01*
X0119052Y0448630D01*
X0119390Y0448820D01*
X0119733Y0449002D01*
X0120081Y0449175D01*
X0120432Y0449340D01*
X0120788Y0449496D01*
X0121147Y0449643D01*
X0121510Y0449782D01*
X0121876Y0449912D01*
X0122245Y0450033D01*
X0122617Y0450145D01*
X0122991Y0450248D01*
X0123368Y0450341D01*
X0123747Y0450426D01*
X0124128Y0450501D01*
X0124510Y0450567D01*
X0124895Y0450623D01*
X0125280Y0450670D01*
X0125667Y0450708D01*
X0126054Y0450736D01*
X0126442Y0450755D01*
X0126830Y0450765D01*
X0127218Y0450765D01*
X0127606Y0450755D01*
X0127994Y0450736D01*
X0128381Y0450708D01*
X0128768Y0450670D01*
X0129153Y0450623D01*
X0129538Y0450567D01*
X0129920Y0450501D01*
X0130301Y0450426D01*
X0130680Y0450341D01*
X0131057Y0450248D01*
X0131431Y0450145D01*
X0131803Y0450033D01*
X0132172Y0449912D01*
X0132538Y0449782D01*
X0132901Y0449643D01*
X0133260Y0449496D01*
X0133616Y0449340D01*
X0133967Y0449175D01*
X0134315Y0449002D01*
X0134658Y0448820D01*
X0134997Y0448630D01*
X0135330Y0448432D01*
X0135659Y0448225D01*
X0135983Y0448011D01*
X0136302Y0447789D01*
X0136615Y0447559D01*
X0136922Y0447322D01*
X0137224Y0447077D01*
X0137519Y0446825D01*
X0137808Y0446566D01*
X0138091Y0446300D01*
X0138367Y0446027D01*
X0138637Y0445747D01*
X0138899Y0445461D01*
X0139155Y0445169D01*
X0139403Y0444871D01*
X0139644Y0444566D01*
X0139878Y0444256D01*
X0140104Y0443940D01*
X0140322Y0443619D01*
X0140532Y0443293D01*
X0140735Y0442961D01*
X0140929Y0442625D01*
X0141115Y0442284D01*
X0141292Y0441939D01*
X0141461Y0441589D01*
X0141622Y0441235D01*
X0141774Y0440878D01*
X0141917Y0440517D01*
X0142051Y0440153D01*
X0142177Y0439785D01*
X0142293Y0439415D01*
X0142400Y0439042D01*
X0142498Y0438666D01*
X0142588Y0438288D01*
X0142667Y0437908D01*
X0142738Y0437526D01*
X0142799Y0437143D01*
X0142851Y0436758D01*
X0142893Y0436372D01*
X0142926Y0435985D01*
X0142950Y0435597D01*
X0142964Y0435209D01*
X0142969Y0434821D01*
X0142969Y0435214D02*
X0142964Y0434826D01*
X0142950Y0434438D01*
X0142926Y0434050D01*
X0142893Y0433663D01*
X0142851Y0433277D01*
X0142799Y0432892D01*
X0142738Y0432509D01*
X0142667Y0432127D01*
X0142588Y0431747D01*
X0142498Y0431369D01*
X0142400Y0430993D01*
X0142293Y0430620D01*
X0142177Y0430250D01*
X0142051Y0429882D01*
X0141917Y0429518D01*
X0141774Y0429157D01*
X0141622Y0428800D01*
X0141461Y0428446D01*
X0141292Y0428096D01*
X0141115Y0427751D01*
X0140929Y0427410D01*
X0140735Y0427074D01*
X0140532Y0426742D01*
X0140322Y0426416D01*
X0140104Y0426095D01*
X0139878Y0425779D01*
X0139644Y0425469D01*
X0139403Y0425164D01*
X0139155Y0424866D01*
X0138899Y0424574D01*
X0138637Y0424288D01*
X0138367Y0424008D01*
X0138091Y0423735D01*
X0137808Y0423469D01*
X0137519Y0423210D01*
X0137224Y0422958D01*
X0136922Y0422713D01*
X0136615Y0422476D01*
X0136302Y0422246D01*
X0135983Y0422024D01*
X0135659Y0421810D01*
X0135330Y0421603D01*
X0134997Y0421405D01*
X0134658Y0421215D01*
X0134315Y0421033D01*
X0133967Y0420860D01*
X0133616Y0420695D01*
X0133260Y0420539D01*
X0132901Y0420392D01*
X0132538Y0420253D01*
X0132172Y0420123D01*
X0131803Y0420002D01*
X0131431Y0419890D01*
X0131057Y0419787D01*
X0130680Y0419694D01*
X0130301Y0419609D01*
X0129920Y0419534D01*
X0129538Y0419468D01*
X0129153Y0419412D01*
X0128768Y0419365D01*
X0128381Y0419327D01*
X0127994Y0419299D01*
X0127606Y0419280D01*
X0127218Y0419270D01*
X0126830Y0419270D01*
X0126442Y0419280D01*
X0126054Y0419299D01*
X0125667Y0419327D01*
X0125280Y0419365D01*
X0124895Y0419412D01*
X0124510Y0419468D01*
X0124128Y0419534D01*
X0123747Y0419609D01*
X0123368Y0419694D01*
X0122991Y0419787D01*
X0122617Y0419890D01*
X0122245Y0420002D01*
X0121876Y0420123D01*
X0121510Y0420253D01*
X0121147Y0420392D01*
X0120788Y0420539D01*
X0120432Y0420695D01*
X0120081Y0420860D01*
X0119733Y0421033D01*
X0119390Y0421215D01*
X0119052Y0421405D01*
X0118718Y0421603D01*
X0118389Y0421810D01*
X0118065Y0422024D01*
X0117746Y0422246D01*
X0117433Y0422476D01*
X0117126Y0422713D01*
X0116824Y0422958D01*
X0116529Y0423210D01*
X0116240Y0423469D01*
X0115957Y0423735D01*
X0115681Y0424008D01*
X0115411Y0424288D01*
X0115149Y0424574D01*
X0114893Y0424866D01*
X0114645Y0425164D01*
X0114404Y0425469D01*
X0114170Y0425779D01*
X0113944Y0426095D01*
X0113726Y0426416D01*
X0113516Y0426742D01*
X0113313Y0427074D01*
X0113119Y0427410D01*
X0112933Y0427751D01*
X0112756Y0428096D01*
X0112587Y0428446D01*
X0112426Y0428800D01*
X0112274Y0429157D01*
X0112131Y0429518D01*
X0111997Y0429882D01*
X0111871Y0430250D01*
X0111755Y0430620D01*
X0111648Y0430993D01*
X0111550Y0431369D01*
X0111460Y0431747D01*
X0111381Y0432127D01*
X0111310Y0432509D01*
X0111249Y0432892D01*
X0111197Y0433277D01*
X0111155Y0433663D01*
X0111122Y0434050D01*
X0111098Y0434438D01*
X0111084Y0434826D01*
X0111079Y0435214D01*
D13*
X0115409Y0437675D02*
X0115409Y0444860D01*
X0138638Y0444860D01*
X0138638Y0437675D01*
X0138638Y0432458D02*
X0138638Y0424880D01*
X0115409Y0424880D01*
X0115409Y0432261D01*
X0123480Y0424092D02*
X0122299Y0421828D01*
X0124661Y0421828D01*
X0123480Y0424092D01*
X0123480Y0420943D01*
X0122410Y0422041D02*
X0124551Y0422041D01*
X0124343Y0422439D02*
X0122618Y0422439D01*
X0122826Y0422838D02*
X0124135Y0422838D01*
X0123927Y0423236D02*
X0123034Y0423236D01*
X0123242Y0423635D02*
X0123719Y0423635D01*
X0123511Y0424033D02*
X0123450Y0424033D01*
X0129386Y0421828D02*
X0131748Y0421828D01*
X0130567Y0424092D01*
X0129386Y0421828D01*
X0129497Y0422041D02*
X0131637Y0422041D01*
X0131429Y0422439D02*
X0129704Y0422439D01*
X0129912Y0422838D02*
X0131221Y0422838D01*
X0131014Y0423236D02*
X0130120Y0423236D01*
X0130328Y0423635D02*
X0130806Y0423635D01*
X0130598Y0424033D02*
X0130536Y0424033D01*
X0130567Y0424092D02*
X0130567Y0420943D01*
D14*
X0150360Y0408197D02*
X0150360Y0380697D01*
X0177860Y0380697D01*
X0177860Y0408197D01*
X0150360Y0408197D01*
X0195163Y0408197D02*
X0195163Y0380697D01*
X0222663Y0380697D01*
X0222663Y0408197D01*
X0195163Y0408197D01*
D15*
X0193331Y0358226D02*
X0193331Y0353226D01*
X0190831Y0355726D02*
X0195831Y0355726D01*
D16*
X0067929Y0383913D03*
X0067929Y0405413D03*
X0040370Y0405413D03*
X0040370Y0383913D03*
D17*
X0094957Y0393463D02*
X0097457Y0393463D01*
X0099957Y0393463D01*
X0099957Y0395963D02*
X0097457Y0395963D01*
X0094957Y0395963D01*
X0126453Y0395963D02*
X0128953Y0395963D01*
X0131453Y0395963D01*
X0131453Y0393463D02*
X0128953Y0393463D01*
X0126453Y0393463D01*
M02*
